<?xml version="1.0" standalone="no"?>
<!DOCTYPE svg PUBLIC "-//W3C//DTD SVG 20010904//EN"
 "http://www.w3.org/TR/2001/REC-SVG-20010904/DTD/svg10.dtd">
<svg version="1.0" xmlns="http://www.w3.org/2000/svg"
 width="225.000000pt" height="225.000000pt" viewBox="0 0 225.000000 225.000000"
 preserveAspectRatio="xMidYMid meet">
<metadata>
Created by potrace 1.14, written by Peter Selinger 2001-2017
</metadata>
<g transform="translate(0.000000,225.000000) scale(0.100000,-0.100000)"
fill="#000000" stroke="none">
<path d="M0 1125 l0 -1125 1125 0 1125 0 0 1125 0 1125 -1125 0 -1125 0 0
-1125z m1419 708 c0 -21 -6 -94 -12 -163 l-12 -125 -123 0 -122 0 0 -122 0
-123 105 0 105 0 0 -155 0 -155 -105 0 -105 0 0 -275 c0 -151 -3 -275 -7 -275
-10 0 -270 -48 -300 -55 l-23 -5 0 745 0 745 300 0 300 0 -1 -37z"/>
</g>
</svg>
